<mxfile host="app.diagrams.net" modified="2024-04-12T16:47:48.624Z" agent="Mozilla/5.0 (Windows NT 10.0; Win64; x64; rv:124.0) Gecko/20100101 Firefox/124.0" version="24.2.2" etag="2ttdvcx0ucAchaNlAVsB" type="github">
  <diagram name="PÃ¡gina-1" id="P9yYdvOXpVbFbjb2ibA6">
    <mxGraphModel>
      <root>
        <mxCell id="0" />
        <mxCell id="1" parent="0" />
      </root>
    </mxGraphModel>
  </diagram>
</mxfile>
